<?xml version="1.0" encoding="UTF-8"?>
<svg xmlns="http://www.w3.org/2000/svg" xmlns:xlink="http://www.w3.org/1999/xlink" version="1.1" width="400px" height="400px" viewBox="0 0 400 400"><defs><rect id="r0" width="9" height="9" fill="#000000"/></defs><rect x="0" y="0" width="400" height="400" fill="#ffffff"/><use x="15" y="15" xlink:href="#r0"/><use x="24" y="15" xlink:href="#r0"/><use x="33" y="15" xlink:href="#r0"/><use x="42" y="15" xlink:href="#r0"/><use x="51" y="15" xlink:href="#r0"/><use x="60" y="15" xlink:href="#r0"/><use x="69" y="15" xlink:href="#r0"/><use x="96" y="15" xlink:href="#r0"/><use x="114" y="15" xlink:href="#r0"/><use x="141" y="15" xlink:href="#r0"/><use x="150" y="15" xlink:href="#r0"/><use x="159" y="15" xlink:href="#r0"/><use x="168" y="15" xlink:href="#r0"/><use x="177" y="15" xlink:href="#r0"/><use x="195" y="15" xlink:href="#r0"/><use x="204" y="15" xlink:href="#r0"/><use x="222" y="15" xlink:href="#r0"/><use x="276" y="15" xlink:href="#r0"/><use x="321" y="15" xlink:href="#r0"/><use x="330" y="15" xlink:href="#r0"/><use x="339" y="15" xlink:href="#r0"/><use x="348" y="15" xlink:href="#r0"/><use x="357" y="15" xlink:href="#r0"/><use x="366" y="15" xlink:href="#r0"/><use x="375" y="15" xlink:href="#r0"/><use x="15" y="24" xlink:href="#r0"/><use x="69" y="24" xlink:href="#r0"/><use x="87" y="24" xlink:href="#r0"/><use x="96" y="24" xlink:href="#r0"/><use x="105" y="24" xlink:href="#r0"/><use x="123" y="24" xlink:href="#r0"/><use x="132" y="24" xlink:href="#r0"/><use x="186" y="24" xlink:href="#r0"/><use x="204" y="24" xlink:href="#r0"/><use x="213" y="24" xlink:href="#r0"/><use x="240" y="24" xlink:href="#r0"/><use x="249" y="24" xlink:href="#r0"/><use x="321" y="24" xlink:href="#r0"/><use x="375" y="24" xlink:href="#r0"/><use x="15" y="33" xlink:href="#r0"/><use x="33" y="33" xlink:href="#r0"/><use x="42" y="33" xlink:href="#r0"/><use x="51" y="33" xlink:href="#r0"/><use x="69" y="33" xlink:href="#r0"/><use x="87" y="33" xlink:href="#r0"/><use x="96" y="33" xlink:href="#r0"/><use x="105" y="33" xlink:href="#r0"/><use x="132" y="33" xlink:href="#r0"/><use x="141" y="33" xlink:href="#r0"/><use x="168" y="33" xlink:href="#r0"/><use x="177" y="33" xlink:href="#r0"/><use x="195" y="33" xlink:href="#r0"/><use x="204" y="33" xlink:href="#r0"/><use x="213" y="33" xlink:href="#r0"/><use x="231" y="33" xlink:href="#r0"/><use x="249" y="33" xlink:href="#r0"/><use x="258" y="33" xlink:href="#r0"/><use x="276" y="33" xlink:href="#r0"/><use x="294" y="33" xlink:href="#r0"/><use x="321" y="33" xlink:href="#r0"/><use x="339" y="33" xlink:href="#r0"/><use x="348" y="33" xlink:href="#r0"/><use x="357" y="33" xlink:href="#r0"/><use x="375" y="33" xlink:href="#r0"/><use x="15" y="42" xlink:href="#r0"/><use x="33" y="42" xlink:href="#r0"/><use x="42" y="42" xlink:href="#r0"/><use x="51" y="42" xlink:href="#r0"/><use x="69" y="42" xlink:href="#r0"/><use x="87" y="42" xlink:href="#r0"/><use x="96" y="42" xlink:href="#r0"/><use x="123" y="42" xlink:href="#r0"/><use x="141" y="42" xlink:href="#r0"/><use x="159" y="42" xlink:href="#r0"/><use x="177" y="42" xlink:href="#r0"/><use x="186" y="42" xlink:href="#r0"/><use x="204" y="42" xlink:href="#r0"/><use x="213" y="42" xlink:href="#r0"/><use x="222" y="42" xlink:href="#r0"/><use x="231" y="42" xlink:href="#r0"/><use x="249" y="42" xlink:href="#r0"/><use x="267" y="42" xlink:href="#r0"/><use x="303" y="42" xlink:href="#r0"/><use x="321" y="42" xlink:href="#r0"/><use x="339" y="42" xlink:href="#r0"/><use x="348" y="42" xlink:href="#r0"/><use x="357" y="42" xlink:href="#r0"/><use x="375" y="42" xlink:href="#r0"/><use x="15" y="51" xlink:href="#r0"/><use x="33" y="51" xlink:href="#r0"/><use x="42" y="51" xlink:href="#r0"/><use x="51" y="51" xlink:href="#r0"/><use x="69" y="51" xlink:href="#r0"/><use x="87" y="51" xlink:href="#r0"/><use x="96" y="51" xlink:href="#r0"/><use x="105" y="51" xlink:href="#r0"/><use x="114" y="51" xlink:href="#r0"/><use x="123" y="51" xlink:href="#r0"/><use x="132" y="51" xlink:href="#r0"/><use x="150" y="51" xlink:href="#r0"/><use x="177" y="51" xlink:href="#r0"/><use x="186" y="51" xlink:href="#r0"/><use x="195" y="51" xlink:href="#r0"/><use x="222" y="51" xlink:href="#r0"/><use x="231" y="51" xlink:href="#r0"/><use x="240" y="51" xlink:href="#r0"/><use x="249" y="51" xlink:href="#r0"/><use x="276" y="51" xlink:href="#r0"/><use x="294" y="51" xlink:href="#r0"/><use x="303" y="51" xlink:href="#r0"/><use x="321" y="51" xlink:href="#r0"/><use x="339" y="51" xlink:href="#r0"/><use x="348" y="51" xlink:href="#r0"/><use x="357" y="51" xlink:href="#r0"/><use x="375" y="51" xlink:href="#r0"/><use x="15" y="60" xlink:href="#r0"/><use x="69" y="60" xlink:href="#r0"/><use x="87" y="60" xlink:href="#r0"/><use x="96" y="60" xlink:href="#r0"/><use x="105" y="60" xlink:href="#r0"/><use x="141" y="60" xlink:href="#r0"/><use x="150" y="60" xlink:href="#r0"/><use x="159" y="60" xlink:href="#r0"/><use x="168" y="60" xlink:href="#r0"/><use x="195" y="60" xlink:href="#r0"/><use x="204" y="60" xlink:href="#r0"/><use x="249" y="60" xlink:href="#r0"/><use x="258" y="60" xlink:href="#r0"/><use x="276" y="60" xlink:href="#r0"/><use x="294" y="60" xlink:href="#r0"/><use x="321" y="60" xlink:href="#r0"/><use x="375" y="60" xlink:href="#r0"/><use x="15" y="69" xlink:href="#r0"/><use x="24" y="69" xlink:href="#r0"/><use x="33" y="69" xlink:href="#r0"/><use x="42" y="69" xlink:href="#r0"/><use x="51" y="69" xlink:href="#r0"/><use x="60" y="69" xlink:href="#r0"/><use x="69" y="69" xlink:href="#r0"/><use x="87" y="69" xlink:href="#r0"/><use x="105" y="69" xlink:href="#r0"/><use x="123" y="69" xlink:href="#r0"/><use x="141" y="69" xlink:href="#r0"/><use x="159" y="69" xlink:href="#r0"/><use x="177" y="69" xlink:href="#r0"/><use x="195" y="69" xlink:href="#r0"/><use x="213" y="69" xlink:href="#r0"/><use x="231" y="69" xlink:href="#r0"/><use x="249" y="69" xlink:href="#r0"/><use x="267" y="69" xlink:href="#r0"/><use x="285" y="69" xlink:href="#r0"/><use x="303" y="69" xlink:href="#r0"/><use x="321" y="69" xlink:href="#r0"/><use x="330" y="69" xlink:href="#r0"/><use x="339" y="69" xlink:href="#r0"/><use x="348" y="69" xlink:href="#r0"/><use x="357" y="69" xlink:href="#r0"/><use x="366" y="69" xlink:href="#r0"/><use x="375" y="69" xlink:href="#r0"/><use x="195" y="78" xlink:href="#r0"/><use x="213" y="78" xlink:href="#r0"/><use x="222" y="78" xlink:href="#r0"/><use x="231" y="78" xlink:href="#r0"/><use x="240" y="78" xlink:href="#r0"/><use x="258" y="78" xlink:href="#r0"/><use x="276" y="78" xlink:href="#r0"/><use x="294" y="78" xlink:href="#r0"/><use x="303" y="78" xlink:href="#r0"/><use x="33" y="87" xlink:href="#r0"/><use x="60" y="87" xlink:href="#r0"/><use x="69" y="87" xlink:href="#r0"/><use x="78" y="87" xlink:href="#r0"/><use x="87" y="87" xlink:href="#r0"/><use x="96" y="87" xlink:href="#r0"/><use x="114" y="87" xlink:href="#r0"/><use x="123" y="87" xlink:href="#r0"/><use x="141" y="87" xlink:href="#r0"/><use x="159" y="87" xlink:href="#r0"/><use x="204" y="87" xlink:href="#r0"/><use x="213" y="87" xlink:href="#r0"/><use x="231" y="87" xlink:href="#r0"/><use x="258" y="87" xlink:href="#r0"/><use x="294" y="87" xlink:href="#r0"/><use x="312" y="87" xlink:href="#r0"/><use x="330" y="87" xlink:href="#r0"/><use x="339" y="87" xlink:href="#r0"/><use x="348" y="87" xlink:href="#r0"/><use x="357" y="87" xlink:href="#r0"/><use x="366" y="87" xlink:href="#r0"/><use x="15" y="96" xlink:href="#r0"/><use x="33" y="96" xlink:href="#r0"/><use x="42" y="96" xlink:href="#r0"/><use x="51" y="96" xlink:href="#r0"/><use x="78" y="96" xlink:href="#r0"/><use x="96" y="96" xlink:href="#r0"/><use x="114" y="96" xlink:href="#r0"/><use x="123" y="96" xlink:href="#r0"/><use x="159" y="96" xlink:href="#r0"/><use x="168" y="96" xlink:href="#r0"/><use x="177" y="96" xlink:href="#r0"/><use x="186" y="96" xlink:href="#r0"/><use x="195" y="96" xlink:href="#r0"/><use x="222" y="96" xlink:href="#r0"/><use x="240" y="96" xlink:href="#r0"/><use x="267" y="96" xlink:href="#r0"/><use x="285" y="96" xlink:href="#r0"/><use x="294" y="96" xlink:href="#r0"/><use x="303" y="96" xlink:href="#r0"/><use x="339" y="96" xlink:href="#r0"/><use x="33" y="105" xlink:href="#r0"/><use x="51" y="105" xlink:href="#r0"/><use x="60" y="105" xlink:href="#r0"/><use x="69" y="105" xlink:href="#r0"/><use x="87" y="105" xlink:href="#r0"/><use x="105" y="105" xlink:href="#r0"/><use x="132" y="105" xlink:href="#r0"/><use x="141" y="105" xlink:href="#r0"/><use x="177" y="105" xlink:href="#r0"/><use x="186" y="105" xlink:href="#r0"/><use x="195" y="105" xlink:href="#r0"/><use x="204" y="105" xlink:href="#r0"/><use x="213" y="105" xlink:href="#r0"/><use x="222" y="105" xlink:href="#r0"/><use x="231" y="105" xlink:href="#r0"/><use x="240" y="105" xlink:href="#r0"/><use x="267" y="105" xlink:href="#r0"/><use x="285" y="105" xlink:href="#r0"/><use x="303" y="105" xlink:href="#r0"/><use x="312" y="105" xlink:href="#r0"/><use x="321" y="105" xlink:href="#r0"/><use x="330" y="105" xlink:href="#r0"/><use x="339" y="105" xlink:href="#r0"/><use x="348" y="105" xlink:href="#r0"/><use x="366" y="105" xlink:href="#r0"/><use x="375" y="105" xlink:href="#r0"/><use x="15" y="114" xlink:href="#r0"/><use x="42" y="114" xlink:href="#r0"/><use x="51" y="114" xlink:href="#r0"/><use x="60" y="114" xlink:href="#r0"/><use x="132" y="114" xlink:href="#r0"/><use x="168" y="114" xlink:href="#r0"/><use x="213" y="114" xlink:href="#r0"/><use x="222" y="114" xlink:href="#r0"/><use x="249" y="114" xlink:href="#r0"/><use x="258" y="114" xlink:href="#r0"/><use x="276" y="114" xlink:href="#r0"/><use x="294" y="114" xlink:href="#r0"/><use x="312" y="114" xlink:href="#r0"/><use x="330" y="114" xlink:href="#r0"/><use x="357" y="114" xlink:href="#r0"/><use x="15" y="123" xlink:href="#r0"/><use x="24" y="123" xlink:href="#r0"/><use x="51" y="123" xlink:href="#r0"/><use x="69" y="123" xlink:href="#r0"/><use x="78" y="123" xlink:href="#r0"/><use x="87" y="123" xlink:href="#r0"/><use x="132" y="123" xlink:href="#r0"/><use x="177" y="123" xlink:href="#r0"/><use x="186" y="123" xlink:href="#r0"/><use x="204" y="123" xlink:href="#r0"/><use x="213" y="123" xlink:href="#r0"/><use x="222" y="123" xlink:href="#r0"/><use x="231" y="123" xlink:href="#r0"/><use x="249" y="123" xlink:href="#r0"/><use x="258" y="123" xlink:href="#r0"/><use x="294" y="123" xlink:href="#r0"/><use x="303" y="123" xlink:href="#r0"/><use x="312" y="123" xlink:href="#r0"/><use x="321" y="123" xlink:href="#r0"/><use x="330" y="123" xlink:href="#r0"/><use x="366" y="123" xlink:href="#r0"/><use x="375" y="123" xlink:href="#r0"/><use x="15" y="132" xlink:href="#r0"/><use x="24" y="132" xlink:href="#r0"/><use x="60" y="132" xlink:href="#r0"/><use x="87" y="132" xlink:href="#r0"/><use x="123" y="132" xlink:href="#r0"/><use x="141" y="132" xlink:href="#r0"/><use x="159" y="132" xlink:href="#r0"/><use x="186" y="132" xlink:href="#r0"/><use x="222" y="132" xlink:href="#r0"/><use x="231" y="132" xlink:href="#r0"/><use x="240" y="132" xlink:href="#r0"/><use x="303" y="132" xlink:href="#r0"/><use x="312" y="132" xlink:href="#r0"/><use x="330" y="132" xlink:href="#r0"/><use x="339" y="132" xlink:href="#r0"/><use x="348" y="132" xlink:href="#r0"/><use x="375" y="132" xlink:href="#r0"/><use x="24" y="141" xlink:href="#r0"/><use x="33" y="141" xlink:href="#r0"/><use x="42" y="141" xlink:href="#r0"/><use x="60" y="141" xlink:href="#r0"/><use x="69" y="141" xlink:href="#r0"/><use x="105" y="141" xlink:href="#r0"/><use x="114" y="141" xlink:href="#r0"/><use x="123" y="141" xlink:href="#r0"/><use x="141" y="141" xlink:href="#r0"/><use x="168" y="141" xlink:href="#r0"/><use x="177" y="141" xlink:href="#r0"/><use x="186" y="141" xlink:href="#r0"/><use x="204" y="141" xlink:href="#r0"/><use x="213" y="141" xlink:href="#r0"/><use x="222" y="141" xlink:href="#r0"/><use x="231" y="141" xlink:href="#r0"/><use x="258" y="141" xlink:href="#r0"/><use x="276" y="141" xlink:href="#r0"/><use x="303" y="141" xlink:href="#r0"/><use x="321" y="141" xlink:href="#r0"/><use x="330" y="141" xlink:href="#r0"/><use x="15" y="150" xlink:href="#r0"/><use x="24" y="150" xlink:href="#r0"/><use x="33" y="150" xlink:href="#r0"/><use x="51" y="150" xlink:href="#r0"/><use x="60" y="150" xlink:href="#r0"/><use x="78" y="150" xlink:href="#r0"/><use x="87" y="150" xlink:href="#r0"/><use x="105" y="150" xlink:href="#r0"/><use x="123" y="150" xlink:href="#r0"/><use x="141" y="150" xlink:href="#r0"/><use x="159" y="150" xlink:href="#r0"/><use x="168" y="150" xlink:href="#r0"/><use x="177" y="150" xlink:href="#r0"/><use x="186" y="150" xlink:href="#r0"/><use x="195" y="150" xlink:href="#r0"/><use x="204" y="150" xlink:href="#r0"/><use x="213" y="150" xlink:href="#r0"/><use x="222" y="150" xlink:href="#r0"/><use x="231" y="150" xlink:href="#r0"/><use x="276" y="150" xlink:href="#r0"/><use x="285" y="150" xlink:href="#r0"/><use x="294" y="150" xlink:href="#r0"/><use x="303" y="150" xlink:href="#r0"/><use x="312" y="150" xlink:href="#r0"/><use x="321" y="150" xlink:href="#r0"/><use x="330" y="150" xlink:href="#r0"/><use x="375" y="150" xlink:href="#r0"/><use x="15" y="159" xlink:href="#r0"/><use x="24" y="159" xlink:href="#r0"/><use x="42" y="159" xlink:href="#r0"/><use x="51" y="159" xlink:href="#r0"/><use x="60" y="159" xlink:href="#r0"/><use x="69" y="159" xlink:href="#r0"/><use x="78" y="159" xlink:href="#r0"/><use x="87" y="159" xlink:href="#r0"/><use x="96" y="159" xlink:href="#r0"/><use x="105" y="159" xlink:href="#r0"/><use x="132" y="159" xlink:href="#r0"/><use x="141" y="159" xlink:href="#r0"/><use x="159" y="159" xlink:href="#r0"/><use x="168" y="159" xlink:href="#r0"/><use x="177" y="159" xlink:href="#r0"/><use x="186" y="159" xlink:href="#r0"/><use x="204" y="159" xlink:href="#r0"/><use x="222" y="159" xlink:href="#r0"/><use x="258" y="159" xlink:href="#r0"/><use x="303" y="159" xlink:href="#r0"/><use x="312" y="159" xlink:href="#r0"/><use x="321" y="159" xlink:href="#r0"/><use x="330" y="159" xlink:href="#r0"/><use x="339" y="159" xlink:href="#r0"/><use x="375" y="159" xlink:href="#r0"/><use x="78" y="168" xlink:href="#r0"/><use x="123" y="168" xlink:href="#r0"/><use x="132" y="168" xlink:href="#r0"/><use x="150" y="168" xlink:href="#r0"/><use x="159" y="168" xlink:href="#r0"/><use x="195" y="168" xlink:href="#r0"/><use x="213" y="168" xlink:href="#r0"/><use x="231" y="168" xlink:href="#r0"/><use x="249" y="168" xlink:href="#r0"/><use x="258" y="168" xlink:href="#r0"/><use x="276" y="168" xlink:href="#r0"/><use x="285" y="168" xlink:href="#r0"/><use x="294" y="168" xlink:href="#r0"/><use x="303" y="168" xlink:href="#r0"/><use x="330" y="168" xlink:href="#r0"/><use x="348" y="168" xlink:href="#r0"/><use x="375" y="168" xlink:href="#r0"/><use x="24" y="177" xlink:href="#r0"/><use x="33" y="177" xlink:href="#r0"/><use x="51" y="177" xlink:href="#r0"/><use x="60" y="177" xlink:href="#r0"/><use x="69" y="177" xlink:href="#r0"/><use x="78" y="177" xlink:href="#r0"/><use x="87" y="177" xlink:href="#r0"/><use x="96" y="177" xlink:href="#r0"/><use x="132" y="177" xlink:href="#r0"/><use x="168" y="177" xlink:href="#r0"/><use x="195" y="177" xlink:href="#r0"/><use x="204" y="177" xlink:href="#r0"/><use x="222" y="177" xlink:href="#r0"/><use x="231" y="177" xlink:href="#r0"/><use x="249" y="177" xlink:href="#r0"/><use x="258" y="177" xlink:href="#r0"/><use x="267" y="177" xlink:href="#r0"/><use x="294" y="177" xlink:href="#r0"/><use x="321" y="177" xlink:href="#r0"/><use x="348" y="177" xlink:href="#r0"/><use x="42" y="186" xlink:href="#r0"/><use x="60" y="186" xlink:href="#r0"/><use x="114" y="186" xlink:href="#r0"/><use x="132" y="186" xlink:href="#r0"/><use x="159" y="186" xlink:href="#r0"/><use x="177" y="186" xlink:href="#r0"/><use x="186" y="186" xlink:href="#r0"/><use x="222" y="186" xlink:href="#r0"/><use x="258" y="186" xlink:href="#r0"/><use x="267" y="186" xlink:href="#r0"/><use x="276" y="186" xlink:href="#r0"/><use x="294" y="186" xlink:href="#r0"/><use x="321" y="186" xlink:href="#r0"/><use x="330" y="186" xlink:href="#r0"/><use x="348" y="186" xlink:href="#r0"/><use x="357" y="186" xlink:href="#r0"/><use x="375" y="186" xlink:href="#r0"/><use x="24" y="195" xlink:href="#r0"/><use x="33" y="195" xlink:href="#r0"/><use x="69" y="195" xlink:href="#r0"/><use x="78" y="195" xlink:href="#r0"/><use x="96" y="195" xlink:href="#r0"/><use x="114" y="195" xlink:href="#r0"/><use x="123" y="195" xlink:href="#r0"/><use x="141" y="195" xlink:href="#r0"/><use x="159" y="195" xlink:href="#r0"/><use x="177" y="195" xlink:href="#r0"/><use x="204" y="195" xlink:href="#r0"/><use x="213" y="195" xlink:href="#r0"/><use x="231" y="195" xlink:href="#r0"/><use x="240" y="195" xlink:href="#r0"/><use x="258" y="195" xlink:href="#r0"/><use x="267" y="195" xlink:href="#r0"/><use x="276" y="195" xlink:href="#r0"/><use x="294" y="195" xlink:href="#r0"/><use x="321" y="195" xlink:href="#r0"/><use x="330" y="195" xlink:href="#r0"/><use x="339" y="195" xlink:href="#r0"/><use x="348" y="195" xlink:href="#r0"/><use x="357" y="195" xlink:href="#r0"/><use x="366" y="195" xlink:href="#r0"/><use x="375" y="195" xlink:href="#r0"/><use x="15" y="204" xlink:href="#r0"/><use x="33" y="204" xlink:href="#r0"/><use x="42" y="204" xlink:href="#r0"/><use x="87" y="204" xlink:href="#r0"/><use x="123" y="204" xlink:href="#r0"/><use x="150" y="204" xlink:href="#r0"/><use x="159" y="204" xlink:href="#r0"/><use x="204" y="204" xlink:href="#r0"/><use x="222" y="204" xlink:href="#r0"/><use x="231" y="204" xlink:href="#r0"/><use x="240" y="204" xlink:href="#r0"/><use x="267" y="204" xlink:href="#r0"/><use x="312" y="204" xlink:href="#r0"/><use x="321" y="204" xlink:href="#r0"/><use x="330" y="204" xlink:href="#r0"/><use x="339" y="204" xlink:href="#r0"/><use x="348" y="204" xlink:href="#r0"/><use x="357" y="204" xlink:href="#r0"/><use x="33" y="213" xlink:href="#r0"/><use x="42" y="213" xlink:href="#r0"/><use x="60" y="213" xlink:href="#r0"/><use x="69" y="213" xlink:href="#r0"/><use x="78" y="213" xlink:href="#r0"/><use x="96" y="213" xlink:href="#r0"/><use x="132" y="213" xlink:href="#r0"/><use x="141" y="213" xlink:href="#r0"/><use x="159" y="213" xlink:href="#r0"/><use x="168" y="213" xlink:href="#r0"/><use x="222" y="213" xlink:href="#r0"/><use x="258" y="213" xlink:href="#r0"/><use x="294" y="213" xlink:href="#r0"/><use x="303" y="213" xlink:href="#r0"/><use x="312" y="213" xlink:href="#r0"/><use x="321" y="213" xlink:href="#r0"/><use x="330" y="213" xlink:href="#r0"/><use x="348" y="213" xlink:href="#r0"/><use x="375" y="213" xlink:href="#r0"/><use x="15" y="222" xlink:href="#r0"/><use x="42" y="222" xlink:href="#r0"/><use x="51" y="222" xlink:href="#r0"/><use x="78" y="222" xlink:href="#r0"/><use x="96" y="222" xlink:href="#r0"/><use x="114" y="222" xlink:href="#r0"/><use x="132" y="222" xlink:href="#r0"/><use x="141" y="222" xlink:href="#r0"/><use x="150" y="222" xlink:href="#r0"/><use x="159" y="222" xlink:href="#r0"/><use x="177" y="222" xlink:href="#r0"/><use x="186" y="222" xlink:href="#r0"/><use x="195" y="222" xlink:href="#r0"/><use x="222" y="222" xlink:href="#r0"/><use x="231" y="222" xlink:href="#r0"/><use x="249" y="222" xlink:href="#r0"/><use x="258" y="222" xlink:href="#r0"/><use x="267" y="222" xlink:href="#r0"/><use x="285" y="222" xlink:href="#r0"/><use x="294" y="222" xlink:href="#r0"/><use x="303" y="222" xlink:href="#r0"/><use x="312" y="222" xlink:href="#r0"/><use x="321" y="222" xlink:href="#r0"/><use x="330" y="222" xlink:href="#r0"/><use x="339" y="222" xlink:href="#r0"/><use x="348" y="222" xlink:href="#r0"/><use x="357" y="222" xlink:href="#r0"/><use x="375" y="222" xlink:href="#r0"/><use x="33" y="231" xlink:href="#r0"/><use x="51" y="231" xlink:href="#r0"/><use x="69" y="231" xlink:href="#r0"/><use x="87" y="231" xlink:href="#r0"/><use x="123" y="231" xlink:href="#r0"/><use x="150" y="231" xlink:href="#r0"/><use x="177" y="231" xlink:href="#r0"/><use x="222" y="231" xlink:href="#r0"/><use x="240" y="231" xlink:href="#r0"/><use x="249" y="231" xlink:href="#r0"/><use x="258" y="231" xlink:href="#r0"/><use x="267" y="231" xlink:href="#r0"/><use x="294" y="231" xlink:href="#r0"/><use x="303" y="231" xlink:href="#r0"/><use x="321" y="231" xlink:href="#r0"/><use x="348" y="231" xlink:href="#r0"/><use x="357" y="231" xlink:href="#r0"/><use x="366" y="231" xlink:href="#r0"/><use x="15" y="240" xlink:href="#r0"/><use x="60" y="240" xlink:href="#r0"/><use x="96" y="240" xlink:href="#r0"/><use x="105" y="240" xlink:href="#r0"/><use x="123" y="240" xlink:href="#r0"/><use x="150" y="240" xlink:href="#r0"/><use x="186" y="240" xlink:href="#r0"/><use x="195" y="240" xlink:href="#r0"/><use x="204" y="240" xlink:href="#r0"/><use x="249" y="240" xlink:href="#r0"/><use x="258" y="240" xlink:href="#r0"/><use x="285" y="240" xlink:href="#r0"/><use x="294" y="240" xlink:href="#r0"/><use x="321" y="240" xlink:href="#r0"/><use x="330" y="240" xlink:href="#r0"/><use x="339" y="240" xlink:href="#r0"/><use x="348" y="240" xlink:href="#r0"/><use x="366" y="240" xlink:href="#r0"/><use x="375" y="240" xlink:href="#r0"/><use x="15" y="249" xlink:href="#r0"/><use x="33" y="249" xlink:href="#r0"/><use x="42" y="249" xlink:href="#r0"/><use x="69" y="249" xlink:href="#r0"/><use x="87" y="249" xlink:href="#r0"/><use x="123" y="249" xlink:href="#r0"/><use x="141" y="249" xlink:href="#r0"/><use x="159" y="249" xlink:href="#r0"/><use x="186" y="249" xlink:href="#r0"/><use x="213" y="249" xlink:href="#r0"/><use x="222" y="249" xlink:href="#r0"/><use x="240" y="249" xlink:href="#r0"/><use x="249" y="249" xlink:href="#r0"/><use x="258" y="249" xlink:href="#r0"/><use x="267" y="249" xlink:href="#r0"/><use x="330" y="249" xlink:href="#r0"/><use x="348" y="249" xlink:href="#r0"/><use x="375" y="249" xlink:href="#r0"/><use x="15" y="258" xlink:href="#r0"/><use x="24" y="258" xlink:href="#r0"/><use x="42" y="258" xlink:href="#r0"/><use x="87" y="258" xlink:href="#r0"/><use x="105" y="258" xlink:href="#r0"/><use x="123" y="258" xlink:href="#r0"/><use x="168" y="258" xlink:href="#r0"/><use x="177" y="258" xlink:href="#r0"/><use x="186" y="258" xlink:href="#r0"/><use x="249" y="258" xlink:href="#r0"/><use x="258" y="258" xlink:href="#r0"/><use x="267" y="258" xlink:href="#r0"/><use x="276" y="258" xlink:href="#r0"/><use x="294" y="258" xlink:href="#r0"/><use x="321" y="258" xlink:href="#r0"/><use x="357" y="258" xlink:href="#r0"/><use x="69" y="267" xlink:href="#r0"/><use x="78" y="267" xlink:href="#r0"/><use x="87" y="267" xlink:href="#r0"/><use x="105" y="267" xlink:href="#r0"/><use x="150" y="267" xlink:href="#r0"/><use x="159" y="267" xlink:href="#r0"/><use x="168" y="267" xlink:href="#r0"/><use x="177" y="267" xlink:href="#r0"/><use x="186" y="267" xlink:href="#r0"/><use x="213" y="267" xlink:href="#r0"/><use x="258" y="267" xlink:href="#r0"/><use x="267" y="267" xlink:href="#r0"/><use x="294" y="267" xlink:href="#r0"/><use x="339" y="267" xlink:href="#r0"/><use x="348" y="267" xlink:href="#r0"/><use x="357" y="267" xlink:href="#r0"/><use x="375" y="267" xlink:href="#r0"/><use x="24" y="276" xlink:href="#r0"/><use x="42" y="276" xlink:href="#r0"/><use x="51" y="276" xlink:href="#r0"/><use x="60" y="276" xlink:href="#r0"/><use x="78" y="276" xlink:href="#r0"/><use x="105" y="276" xlink:href="#r0"/><use x="132" y="276" xlink:href="#r0"/><use x="141" y="276" xlink:href="#r0"/><use x="150" y="276" xlink:href="#r0"/><use x="159" y="276" xlink:href="#r0"/><use x="177" y="276" xlink:href="#r0"/><use x="213" y="276" xlink:href="#r0"/><use x="222" y="276" xlink:href="#r0"/><use x="231" y="276" xlink:href="#r0"/><use x="240" y="276" xlink:href="#r0"/><use x="249" y="276" xlink:href="#r0"/><use x="267" y="276" xlink:href="#r0"/><use x="330" y="276" xlink:href="#r0"/><use x="348" y="276" xlink:href="#r0"/><use x="375" y="276" xlink:href="#r0"/><use x="15" y="285" xlink:href="#r0"/><use x="24" y="285" xlink:href="#r0"/><use x="33" y="285" xlink:href="#r0"/><use x="60" y="285" xlink:href="#r0"/><use x="69" y="285" xlink:href="#r0"/><use x="87" y="285" xlink:href="#r0"/><use x="96" y="285" xlink:href="#r0"/><use x="105" y="285" xlink:href="#r0"/><use x="114" y="285" xlink:href="#r0"/><use x="123" y="285" xlink:href="#r0"/><use x="150" y="285" xlink:href="#r0"/><use x="159" y="285" xlink:href="#r0"/><use x="186" y="285" xlink:href="#r0"/><use x="195" y="285" xlink:href="#r0"/><use x="213" y="285" xlink:href="#r0"/><use x="249" y="285" xlink:href="#r0"/><use x="267" y="285" xlink:href="#r0"/><use x="294" y="285" xlink:href="#r0"/><use x="321" y="285" xlink:href="#r0"/><use x="330" y="285" xlink:href="#r0"/><use x="348" y="285" xlink:href="#r0"/><use x="366" y="285" xlink:href="#r0"/><use x="375" y="285" xlink:href="#r0"/><use x="42" y="294" xlink:href="#r0"/><use x="51" y="294" xlink:href="#r0"/><use x="60" y="294" xlink:href="#r0"/><use x="78" y="294" xlink:href="#r0"/><use x="87" y="294" xlink:href="#r0"/><use x="123" y="294" xlink:href="#r0"/><use x="141" y="294" xlink:href="#r0"/><use x="186" y="294" xlink:href="#r0"/><use x="195" y="294" xlink:href="#r0"/><use x="213" y="294" xlink:href="#r0"/><use x="222" y="294" xlink:href="#r0"/><use x="258" y="294" xlink:href="#r0"/><use x="267" y="294" xlink:href="#r0"/><use x="312" y="294" xlink:href="#r0"/><use x="321" y="294" xlink:href="#r0"/><use x="330" y="294" xlink:href="#r0"/><use x="357" y="294" xlink:href="#r0"/><use x="375" y="294" xlink:href="#r0"/><use x="15" y="303" xlink:href="#r0"/><use x="24" y="303" xlink:href="#r0"/><use x="33" y="303" xlink:href="#r0"/><use x="42" y="303" xlink:href="#r0"/><use x="60" y="303" xlink:href="#r0"/><use x="69" y="303" xlink:href="#r0"/><use x="87" y="303" xlink:href="#r0"/><use x="96" y="303" xlink:href="#r0"/><use x="114" y="303" xlink:href="#r0"/><use x="132" y="303" xlink:href="#r0"/><use x="141" y="303" xlink:href="#r0"/><use x="159" y="303" xlink:href="#r0"/><use x="177" y="303" xlink:href="#r0"/><use x="195" y="303" xlink:href="#r0"/><use x="231" y="303" xlink:href="#r0"/><use x="240" y="303" xlink:href="#r0"/><use x="249" y="303" xlink:href="#r0"/><use x="276" y="303" xlink:href="#r0"/><use x="294" y="303" xlink:href="#r0"/><use x="303" y="303" xlink:href="#r0"/><use x="312" y="303" xlink:href="#r0"/><use x="321" y="303" xlink:href="#r0"/><use x="330" y="303" xlink:href="#r0"/><use x="339" y="303" xlink:href="#r0"/><use x="348" y="303" xlink:href="#r0"/><use x="357" y="303" xlink:href="#r0"/><use x="375" y="303" xlink:href="#r0"/><use x="87" y="312" xlink:href="#r0"/><use x="96" y="312" xlink:href="#r0"/><use x="105" y="312" xlink:href="#r0"/><use x="150" y="312" xlink:href="#r0"/><use x="159" y="312" xlink:href="#r0"/><use x="168" y="312" xlink:href="#r0"/><use x="177" y="312" xlink:href="#r0"/><use x="195" y="312" xlink:href="#r0"/><use x="204" y="312" xlink:href="#r0"/><use x="222" y="312" xlink:href="#r0"/><use x="240" y="312" xlink:href="#r0"/><use x="249" y="312" xlink:href="#r0"/><use x="258" y="312" xlink:href="#r0"/><use x="303" y="312" xlink:href="#r0"/><use x="339" y="312" xlink:href="#r0"/><use x="366" y="312" xlink:href="#r0"/><use x="15" y="321" xlink:href="#r0"/><use x="24" y="321" xlink:href="#r0"/><use x="33" y="321" xlink:href="#r0"/><use x="42" y="321" xlink:href="#r0"/><use x="51" y="321" xlink:href="#r0"/><use x="60" y="321" xlink:href="#r0"/><use x="69" y="321" xlink:href="#r0"/><use x="87" y="321" xlink:href="#r0"/><use x="96" y="321" xlink:href="#r0"/><use x="105" y="321" xlink:href="#r0"/><use x="114" y="321" xlink:href="#r0"/><use x="123" y="321" xlink:href="#r0"/><use x="132" y="321" xlink:href="#r0"/><use x="141" y="321" xlink:href="#r0"/><use x="168" y="321" xlink:href="#r0"/><use x="177" y="321" xlink:href="#r0"/><use x="186" y="321" xlink:href="#r0"/><use x="204" y="321" xlink:href="#r0"/><use x="222" y="321" xlink:href="#r0"/><use x="231" y="321" xlink:href="#r0"/><use x="240" y="321" xlink:href="#r0"/><use x="258" y="321" xlink:href="#r0"/><use x="276" y="321" xlink:href="#r0"/><use x="285" y="321" xlink:href="#r0"/><use x="303" y="321" xlink:href="#r0"/><use x="321" y="321" xlink:href="#r0"/><use x="339" y="321" xlink:href="#r0"/><use x="375" y="321" xlink:href="#r0"/><use x="15" y="330" xlink:href="#r0"/><use x="69" y="330" xlink:href="#r0"/><use x="87" y="330" xlink:href="#r0"/><use x="123" y="330" xlink:href="#r0"/><use x="141" y="330" xlink:href="#r0"/><use x="150" y="330" xlink:href="#r0"/><use x="177" y="330" xlink:href="#r0"/><use x="195" y="330" xlink:href="#r0"/><use x="204" y="330" xlink:href="#r0"/><use x="213" y="330" xlink:href="#r0"/><use x="231" y="330" xlink:href="#r0"/><use x="258" y="330" xlink:href="#r0"/><use x="285" y="330" xlink:href="#r0"/><use x="294" y="330" xlink:href="#r0"/><use x="303" y="330" xlink:href="#r0"/><use x="339" y="330" xlink:href="#r0"/><use x="348" y="330" xlink:href="#r0"/><use x="366" y="330" xlink:href="#r0"/><use x="375" y="330" xlink:href="#r0"/><use x="15" y="339" xlink:href="#r0"/><use x="33" y="339" xlink:href="#r0"/><use x="42" y="339" xlink:href="#r0"/><use x="51" y="339" xlink:href="#r0"/><use x="69" y="339" xlink:href="#r0"/><use x="105" y="339" xlink:href="#r0"/><use x="123" y="339" xlink:href="#r0"/><use x="132" y="339" xlink:href="#r0"/><use x="159" y="339" xlink:href="#r0"/><use x="204" y="339" xlink:href="#r0"/><use x="213" y="339" xlink:href="#r0"/><use x="222" y="339" xlink:href="#r0"/><use x="231" y="339" xlink:href="#r0"/><use x="240" y="339" xlink:href="#r0"/><use x="258" y="339" xlink:href="#r0"/><use x="276" y="339" xlink:href="#r0"/><use x="285" y="339" xlink:href="#r0"/><use x="294" y="339" xlink:href="#r0"/><use x="303" y="339" xlink:href="#r0"/><use x="312" y="339" xlink:href="#r0"/><use x="321" y="339" xlink:href="#r0"/><use x="330" y="339" xlink:href="#r0"/><use x="339" y="339" xlink:href="#r0"/><use x="375" y="339" xlink:href="#r0"/><use x="15" y="348" xlink:href="#r0"/><use x="33" y="348" xlink:href="#r0"/><use x="42" y="348" xlink:href="#r0"/><use x="51" y="348" xlink:href="#r0"/><use x="69" y="348" xlink:href="#r0"/><use x="96" y="348" xlink:href="#r0"/><use x="105" y="348" xlink:href="#r0"/><use x="114" y="348" xlink:href="#r0"/><use x="123" y="348" xlink:href="#r0"/><use x="186" y="348" xlink:href="#r0"/><use x="267" y="348" xlink:href="#r0"/><use x="285" y="348" xlink:href="#r0"/><use x="294" y="348" xlink:href="#r0"/><use x="303" y="348" xlink:href="#r0"/><use x="366" y="348" xlink:href="#r0"/><use x="15" y="357" xlink:href="#r0"/><use x="33" y="357" xlink:href="#r0"/><use x="42" y="357" xlink:href="#r0"/><use x="51" y="357" xlink:href="#r0"/><use x="69" y="357" xlink:href="#r0"/><use x="87" y="357" xlink:href="#r0"/><use x="114" y="357" xlink:href="#r0"/><use x="132" y="357" xlink:href="#r0"/><use x="141" y="357" xlink:href="#r0"/><use x="168" y="357" xlink:href="#r0"/><use x="186" y="357" xlink:href="#r0"/><use x="204" y="357" xlink:href="#r0"/><use x="213" y="357" xlink:href="#r0"/><use x="240" y="357" xlink:href="#r0"/><use x="249" y="357" xlink:href="#r0"/><use x="258" y="357" xlink:href="#r0"/><use x="267" y="357" xlink:href="#r0"/><use x="294" y="357" xlink:href="#r0"/><use x="303" y="357" xlink:href="#r0"/><use x="339" y="357" xlink:href="#r0"/><use x="357" y="357" xlink:href="#r0"/><use x="366" y="357" xlink:href="#r0"/><use x="375" y="357" xlink:href="#r0"/><use x="15" y="366" xlink:href="#r0"/><use x="69" y="366" xlink:href="#r0"/><use x="96" y="366" xlink:href="#r0"/><use x="105" y="366" xlink:href="#r0"/><use x="114" y="366" xlink:href="#r0"/><use x="123" y="366" xlink:href="#r0"/><use x="150" y="366" xlink:href="#r0"/><use x="159" y="366" xlink:href="#r0"/><use x="168" y="366" xlink:href="#r0"/><use x="213" y="366" xlink:href="#r0"/><use x="231" y="366" xlink:href="#r0"/><use x="249" y="366" xlink:href="#r0"/><use x="258" y="366" xlink:href="#r0"/><use x="267" y="366" xlink:href="#r0"/><use x="294" y="366" xlink:href="#r0"/><use x="303" y="366" xlink:href="#r0"/><use x="312" y="366" xlink:href="#r0"/><use x="330" y="366" xlink:href="#r0"/><use x="339" y="366" xlink:href="#r0"/><use x="366" y="366" xlink:href="#r0"/><use x="375" y="366" xlink:href="#r0"/><use x="15" y="375" xlink:href="#r0"/><use x="24" y="375" xlink:href="#r0"/><use x="33" y="375" xlink:href="#r0"/><use x="42" y="375" xlink:href="#r0"/><use x="51" y="375" xlink:href="#r0"/><use x="60" y="375" xlink:href="#r0"/><use x="69" y="375" xlink:href="#r0"/><use x="96" y="375" xlink:href="#r0"/><use x="132" y="375" xlink:href="#r0"/><use x="141" y="375" xlink:href="#r0"/><use x="168" y="375" xlink:href="#r0"/><use x="186" y="375" xlink:href="#r0"/><use x="204" y="375" xlink:href="#r0"/><use x="213" y="375" xlink:href="#r0"/><use x="222" y="375" xlink:href="#r0"/><use x="231" y="375" xlink:href="#r0"/><use x="258" y="375" xlink:href="#r0"/><use x="276" y="375" xlink:href="#r0"/><use x="294" y="375" xlink:href="#r0"/><use x="303" y="375" xlink:href="#r0"/><use x="312" y="375" xlink:href="#r0"/><use x="339" y="375" xlink:href="#r0"/><use x="357" y="375" xlink:href="#r0"/><use x="375" y="375" xlink:href="#r0"/></svg>
