<svg viewBox="0 0 1125 1865" xmlns="http://www.w3.org/2000/svg" id="图层_1"><defs><style>.cls-1{fill:#cb8d57;}.cls-2{fill:#e0c1a6;}.cls-3{fill:#6b7099;}.cls-4{fill:#8e7674;}.cls-5{fill:#f8d8ca;}.cls-6{fill:#e574a9;}.cls-7{fill:#dd9985;}.cls-8{fill:#b28b7e;}.cls-9{fill:#4c3838;}.cls-10{fill:#685656;}.cls-11{fill:#7a6261;}.cls-12{fill:#dc9b62;}.cls-13{fill:#fff;}.cls-14{fill:#d8d8d8;}.cls-15{fill:#d6966b;}.cls-16{fill:#65471c;}.cls-17,.cls-23,.cls-25{fill:none;}.cls-17{stroke:#000;stroke-linecap:round;stroke-linejoin:round;}.cls-18{fill:#c62c2a;}.cls-19{fill:#632689;}.cls-20{fill:#f7bb7d;}.cls-21{fill:#e19f00;}.cls-22{fill:#c9a991;}.cls-23{stroke:#f2f2f2;stroke-width:3px;}.cls-23,.cls-25{stroke-miterlimit:10;}.cls-24{fill:#e8a77f;}.cls-25{stroke:#8e6b62;stroke-width:5px;}.cls-26{fill:#8e6b62;}.cls-27{fill:#7a6a69;}</style></defs><title>女孩冬季穿搭</title><ellipse transform="translate(-101.33 10.05) rotate(-4.53)" ry="58.4" rx="46.81" cy="1285.41" cx="76.28" class="cls-1"></ellipse><path d="M613.17,571c8.93,56.27,16.76,112.68,24.07,169.16l2.86.53a428.45,428.45,0,0,0,160.38-.53h0c3.8-156.84,6.95-313.7,8.53-470.58-5.93-1.33-18.32-2.47-24.42-3.39-14.23-6.57-50.22-6.62-88.41-5.37-22.46.73-70.37,2.4-90.74,9.61,0-.13,0-.25.06-.38a1,1,0,0,1-.38.49c-1,.35-1.89.73-2.74,1.11-5.56,1.59-18.33,3.75-36.38,10.39-2.8,1-5.57,2.11-8.33,3.21,2.61,9.9,5.28,19.78,7.78,29.75,7,28.06,12,56.85,17.56,85.23Q599.66,485.28,613.17,571Z" class="cls-2"></path><path d="M798,267.83a54.64,54.64,0,0,1,.4,6.42c0,41.37-46.3,74.91-103.42,74.91S591.6,315.62,591.6,274.25v0A232.73,232.73,0,0,0,566,282c-2.8,1-5.57,2.11-8.33,3.21,2.61,9.9,5.28,19.78,7.78,29.75,7,28.06,12,56.85,17.56,85.23q16.65,85.1,30.16,170.77c8.93,56.27,16.76,112.68,24.07,169.16l2.86.53a428.45,428.45,0,0,0,160.38-.53c3.8-156.84,6.95-313.7,8.53-470.58C806.3,268.92,802.23,268.35,798,267.83Z" class="cls-2"></path><path d="M482.89,880.91l-3.49,48,455.21-4L762.49,892.41s-133.39,6.9-205.9,1.61C507.77,890.46,482.89,880.91,482.89,880.91Z" class="cls-3"></path><polygon points="760.22 1511.15 1021.81 1473.47 890.68 653.85 721.9 696.21 722.59 679.72 501.86 689.77 463.56 1103.5 428.42 1482.96 687.96 1509.04 702.59 1136.08 721.17 1136.08 760.22 1511.15" class="cls-4"></polygon><polygon points="554.28 1479.3 549.04 1663.11 667.84 1648.78 667.84 1488.09 554.28 1479.3" class="cls-5"></polygon><polygon points="897.57 1478.61 902.81 1662.42 784.01 1648.09 784.01 1487.39 897.57 1478.61" class="cls-5"></polygon><path d="M551.57,1551.38s61.14,7.86,117.72-4.09l3.61,95.18L549,1624.53Z" class="cls-6"></path><path d="M900.87,1545.4s-60.67,17.45-117.24,6L780,1642.47l123.85-17.16Z" class="cls-6"></path><path d="M552.3,1518.14l.25,8.75s33.73,8.43,115.09,8.74l-.42-10.41a510.66,510.66,0,0,1-56.57-.57C583.17,1522.57,552.3,1518.14,552.3,1518.14Z" class="cls-7"></path><path d="M898.76,1516.24l.21,8.39s-33.53,9.77-114.89,10.07V1525s28.85-.14,56.33-2.22S898.76,1516.24,898.76,1516.24Z" class="cls-7"></path><path d="M1069.31,1013.9s-28-385.61-88.95-571.91l-.53.41c-.54-2.12-1.07-4.24-1.63-6.36-22.77-85.41-89.55-146.43-173.41-166q-1,101.28-2.85,202.55c-4.31,243-11.44,485.87-17.79,728.79q-.46,17.88-.92,35.78c87.94-4.9,209.43-13.55,209.43-25.07,0-.7-13.12-83.41-29.45-186.17Z" class="cls-8"></path><path d="M700.62,1214c-13.36-114.3-25.83-228.71-40-342.93-14.49-116.86-28.76-233.62-48.29-349.78Q598,435.72,580.43,350.68c-4.69-22.69-10.75-45.17-16.29-67.74-34.74,14.29-66,34.93-88.59,65.59-83.57,113.3-96,269-110.38,404.65-9.44,89.06-16.37,178.64-19.51,268.16l121.08,15.14c-10,107.13-17.93,194.07-16.94,191.62a14.1,14.1,0,0,0,8.16,3.55c81.3,11.24,163.73,12.36,245.52,6.71C702.53,1230.25,701.56,1222.14,700.62,1214Z" class="cls-8"></path><path d="M672.84,1678.31c-20,10.49-42.51,20.85-56.07,39.55-8.64,11.91-16.3,21.84-29.09,30.2-14.27,9.32-35.47,15.39-52.06,17-39.41,3.88-80.31,2.33-118.07-7.62a17.54,17.54,0,0,1-12.32-12c-.15.78-.3,1.54-.45,2.34A17.61,17.61,0,0,0,417.55,1768c37.76,10,78.66,11.5,118.07,7.62,16.59-1.64,37.79-7.71,52.06-17,12.79-8.35,20.45-18.28,29.09-30.2,13.56-18.7,36.11-29.05,56.07-39.55,1.62-.85,2-15.42,1.86-32C674.6,1668.65,674.1,1677.64,672.84,1678.31Z" class="cls-9"></path><path d="M673.46,1597.1l-11.13,2.48c-49.85,13.31-113.52-1.22-113.52-1.22-.59.93-5.09,26.65-7.69,37.4-1.07,4.41-2.52,8.74-6.18,11.43-52.11,38.34-112.84-5.15-130.16,90.09a17.75,17.75,0,0,0,.45,8.22,17.54,17.54,0,0,0,12.32,12c37.76,10,78.66,11.5,118.07,7.62,16.59-1.63,37.79-7.7,52.06-17,12.79-8.36,20.45-18.29,29.09-30.2,13.56-18.7,36.11-29.06,56.07-39.55,1.26-.67,1.76-9.66,1.86-21.43C674.91,1632.81,673.46,1597.1,673.46,1597.1Z" class="cls-10"></path><path d="M781.22,1674.17c20,10.5,42.5,20.85,56.07,39.55,8.64,11.92,16.3,21.85,29.09,30.2,14.26,9.32,35.46,15.39,52,17,39.41,3.88,80.32,2.33,118.07-7.62a17.55,17.55,0,0,0,12.32-12c.15.78.31,1.55.45,2.35a17.62,17.62,0,0,1-12.77,20.19c-37.75,9.95-78.66,11.49-118.07,7.61-16.59-1.63-37.79-7.7-52-17-12.79-8.36-20.45-18.29-29.09-30.2-13.57-18.7-36.11-29.06-56.07-39.55-1.63-.86-2-15.43-1.87-32C779.45,1664.51,780,1673.51,781.22,1674.17Z" class="cls-9"></path><path d="M780.6,1593l11.12,2.48c49.85,13.3,113.52-1.22,113.52-1.22.59.93,5.09,26.64,7.7,37.4,1.07,4.41,2.51,8.74,6.17,11.43,52.11,38.34,112.85-5.15,130.16,90.08a17.73,17.73,0,0,1-.45,8.22,17.55,17.55,0,0,1-12.32,12c-37.75,10-78.66,11.5-118.07,7.62-16.59-1.64-37.79-7.71-52-17-12.79-8.35-20.45-18.28-29.09-30.2-13.57-18.7-36.11-29-56.07-39.55-1.27-.66-1.77-9.66-1.87-21.42C779.14,1628.68,780.6,1593,780.6,1593Z" class="cls-10"></path><path d="M427.46,1483.55l-1.63,15s194.51,40.82,262.45,22.64l.3-13.84c-71.11,15.73-258.73-23.54-258.73-23.54" class="cls-10"></path><path d="M439.22,1396.83a15.78,15.78,0,0,1-2.16-2.17l-9.6,88.89,2.37.25s188.37,42.61,258.82,26.87l1.94-90S472.62,1425.57,439.22,1396.83Z" class="cls-11"></path><path d="M1032.73,1481.52c-12.77,2.82-209.71,47.21-279,30.53l.22,10.1c70.22,18.18,281-30.34,281-30.34Z" class="cls-10"></path><path d="M1033.05,1482.64l-23.2-93.88c-53.75,39.55-257.9,29.81-257.9,29.81l2.1,93.77C822.72,1529,1020.39,1485.46,1033.05,1482.64Z" class="cls-11"></path><path d="M970.94,1025c-3,21.46-8.13,41-11.28,62.27-1.66,11.22,21,5.57,31.31-28,25.19,10.08,18.18,77.21,23.62,117.33a6.11,6.11,0,0,0,11.09,2.69c7.71-11.38,14-31.8,15.78-40.12,8.14-37.5,10-54.43,12.76-92.71.71-10.09.38-21.42-3.16-30.66Z" class="cls-5"></path><path d="M451.91,1029.34c-4.8,21.13-6.9,41.19-11.49,62.24-2.41,11.08-17.74,12.33-21.78,1.72-2.82-7.43-.93-30.26,2.4-39-29.69.56-47.48,78.69-69.14,110.6-10-6.09-8.08-42.14-6.35-53.74,5.65-38,14.51-82.56,20.87-91.22C368.25,1017.46,451.91,1029.34,451.91,1029.34Z" class="cls-5"></path><polygon points="334.02 1619.79 347.12 1397.1 457.1 1268.24 763.23 1329.62 754.04 1512.34 528.09 1421.1 474.52 1493.22 485.28 1722.82 330.47 1719.05 334.02 1619.79" class="cls-12"></polygon><path d="M160,1521.67s-52.51,129.65,72.76,118.81a9.43,9.43,0,0,0,8.68-9c1.18-31.63,8-145.72,46.47-160.74Z" class="cls-12"></path><path d="M380.88,1115.66s49.86-130.69,134.2-37.44a9.44,9.44,0,0,1,.22,12.52c-20.69,24-127.79,107-109.89,144.13Z" class="cls-12"></path><path d="M410,1415.54c12.85-21,26.53-43.4,34.83-67.27,4.65-13.37,9-27.26,10.46-41.25,1.14-10.73,1.67-38.89,1.85-38.78l-37.27-23.16a278.75,278.75,0,0,1,52.06-102.21l6.73-8.34c-13.07-5.43-26.25-10.62-39.57-15.39-15-5.35-30.12-10.19-45.51-14.17q-9.26-2.4-18.64-4.32a121.17,121.17,0,0,0-28.31,28.42c-26.94,37.24-50.73,80.35-62.21,124.39a208.58,208.58,0,0,1-26.19,59.88c-13.56,21.17-32.11,47.79-56.5,52.64-3.83,5.64-26.12,42.37-38.56,83.63-11.07,36.7-14.5,76.93-15.16,95a7.69,7.69,0,0,0,5.69,7.69q3.39.93,6.77,1.92c23.62,6.92,69.51,23.28,84.46,28.69a4.12,4.12,0,0,0,5.44-3.12l4.1-21.62c.24-1.25.44-2.53.61-3.8,6.46-48.51,26.9-72.56,49.46-116.67l39.4,29.21C366.78,1456,398.33,1434.53,410,1415.54Z" class="cls-13"></path><circle r="133.08" cy="1244.5" cx="219.11" class="cls-12"></circle><ellipse transform="translate(-866.55 1030.3) rotate(-71.39)" ry="60.67" rx="45.62" cy="1118.22" cx="283.76" class="cls-1"></ellipse><path d="M338.45,1319.05c0,29.21-26.22,52.89-58.56,52.89s-68.57-21.2-68.57-50.41,38-69.09,70.32-69.09S338.45,1289.84,338.45,1319.05Z" class="cls-1"></path><ellipse transform="translate(-1130.37 1072.01) rotate(-71.4)" ry="12.25" rx="9.53" cy="1322.61" cx="180.81"></ellipse><ellipse transform="translate(-785.11 562.14) rotate(-45)" ry="12.25" rx="9.53" cy="1228.78" cx="286.01"></ellipse><ellipse transform="translate(-851.27 586.69) rotate(-45)" ry="12.25" rx="9.53" cy="1320.93" cx="282.57"></ellipse><polygon points="304.5 1437.73 362.4 1456.29 343.9 1466.94 304.5 1437.73" class="cls-14"></polygon><path d="M343.9,1466.94s81.07-36,130.62,26.28l12.8,215.66-165.06-18.2Z" class="cls-15"></path><ellipse ry="61.43" rx="110.58" cy="1708.88" cx="376.75" class="cls-1"></ellipse><path d="M457.1,1268.24s-5.5,123.14,71,152.86l209.52,87.29L730.9,1324.5Z" class="cls-15"></path><ellipse transform="translate(-748.88 1900.99) rotate(-80.05)" ry="68.34" rx="113.78" cy="1396.32" cx="757.27" class="cls-1"></ellipse><path d="M457.1,1268.24c6.85,4.9-1.41,45.42-2.58,51.7-6.09,32.88-21.26,63.72-40.36,90.94-8.89,12.65-18.45,25.06-30.32,35.08-5.49,4.65-32.11,25.67-39.94,21l-18.28-13s52.91-32.52,82.88-90.64,31.78-107.15,31.78-107.15Z" class="cls-14"></path><path d="M696.91,310.16c37.27-3.1,59.9-29.1,71.61-48-17.93-2.48-44.54-2.26-72.34-1.35-15.11.49-41.74,1.41-63.75,4.15C637.05,281.13,652,313.9,696.91,310.16Z" class="cls-13"></path><path d="M604.72,249.19c7.88-24.67,21.48-99.46,19.2-100.45-1-.45,33.73-29.57,67.35-28.87,35,.73,68.88,31.29,68.88,31.29l2.78,20.05s11.22,56.61,24.49,88.32C789.14,263.63,603.49,253,604.72,249.19Z" class="cls-16"></path><ellipse transform="translate(-9.35 42.04) rotate(-3.46)" ry="75.55" rx="63.39" cy="175.75" cx="690.87" class="cls-5"></ellipse><ellipse transform="translate(-16.04 82.85) rotate(-7.12)" ry="5.6" rx="4.9" cy="170.26" cx="657.57"></ellipse><path d="M648.84,162.66a12.8,12.8,0,0,1,15.33.06" class="cls-17"></path><ellipse transform="translate(-15.44 90.93) rotate(-7.12)" ry="5.6" rx="4.9" cy="169.5" cx="722.79"></ellipse><path d="M716.65,160.28a12.79,12.79,0,0,1,15.26,1.47" class="cls-17"></path><path d="M764.79,166.61s1.25-83-70.13-83.23c-1.84,0-3.22,3-5.15,3.08-1.56,0-3.58-3-5.08-2.88C607.44,87.94,624,163,624,163s21.1-10.16,54.73-11.91c5.36-5.38,9.45-13.94,11.12-17.76a.69.69,0,0,1,1.3.08c2.07,6.2,9.17,13.75,12.72,17.59C722.77,151.17,741.48,152,764.79,166.61Z" class="cls-16"></path><ellipse transform="translate(401.64 785.33) rotate(-85.65)" ry="17.32" rx="16.36" cy="175.99" cx="624.49" class="cls-5"></ellipse><ellipse transform="translate(-18.99 146.98) rotate(-10.87)" ry="15.82" rx="16.75" cy="173.28" cx="762.93" class="cls-5"></ellipse><path d="M690.65,179.17s-3.15,8.21-.62,11.37" class="cls-17"></path><ellipse transform="translate(472.47 892.57) rotate(-88.76)" ry="4.27" rx="4.08" cy="204.86" cx="692.32" class="cls-18"></ellipse><path d="M671.49,246.54l2.21,33.29h0a53.75,53.75,0,0,0,43.07-.94l1.32-.61.72-34Z" class="cls-5"></path><path d="M671.52,246.24s20.1,7.9,47.11-1.88l.22,21.55c.34-3.19-36.21-9.45-46.37-4.1Z" class="cls-7"></path><circle r="2.25" cy="185.38" cx="624.23" class="cls-19"></circle><circle r="2.25" cy="184.13" cx="759.69" class="cls-19"></circle><path d="M760.65,137.74l-92.36-22.16-40.78,30.35-5.45.33a78.35,78.35,0,0,1,11.7-45.95c5.94-9.74,12.89-19,25.63-23.91,15.87-6.16,36.2-6.79,52.64-3.2,12.18,2.66,24.62,8.27,31.55,17.33,7.5,9.8,9.63,22,12.91,33.13Z" class="cls-20"></path><path d="M764.37,157.72A44.77,44.77,0,0,0,742,135.09c-7.25-3.26-15.14-4.46-22.9-5.85-17.58-3.14-34.13-10.06-52.34-8.2-7.61.77-13.77,6.43-18.61,12.35s-9.14,12.55-15.56,16.69-6.14,3.3-9.42,10.31c1.46-4.2-7.8-11,9.31-33.93,2.93-3.92,5.29-8.27,8.59-11.89,16.92-18.48,43.54-19,66-12.07C733.73,110.76,766.94,123.72,764.37,157.72Z" class="cls-21"></path><path d="M695,349.16c57.12,0,103.42-33.54,103.42-74.91a54.64,54.64,0,0,0-.4-6.42c-5-.63-10.14-1.19-13.45-1.69-3.87-1.79-9.37-3.09-16.07-4-11.71,18.94-34.34,44.94-71.61,48-44.9,3.74-59.86-29-64.48-45.24-10.71,1.34-20.32,3.1-27,5.46,0-.13,0-.25.06-.38a1,1,0,0,1-.38.49c-1,.35-1.89.73-2.74,1.11-2.35.67-6,1.45-10.77,2.62v0C591.6,315.62,637.91,349.16,695,349.16Z" class="cls-22"></path><path d="M605.5,270s44.83,218.76,102.72,263.78c0,0,84.15-142.95,76.37-267.64" class="cls-23"></path><circle r="18.79" cy="554.41" cx="707.86" class="cls-23"></circle><circle r="18.79" cy="593.52" cx="707.09" class="cls-23"></circle><circle r="18.79" cy="632.63" cx="707.09" class="cls-23"></circle><line y2="678.72" x2="699.85" y1="649.91" x1="699.85" class="cls-23"></line><line y2="681.66" x2="712.5" y1="652.25" x1="708.3" class="cls-23"></line><line y2="674.65" x2="724.5" y1="652.44" x1="716.1" class="cls-23"></line><path d="M668.26,930.24c-1.3-29.83-60.21-513.74-104.12-647.3l0,0c-28.82-13.22-63.13-8.43-86.26,13.26-15,14.09-16.13,27.31-2.29,52.35C611.26,594.1,668.26,930.24,668.26,930.24Z" class="cls-24"></path><path d="M792.86,956.06s11.93-686,11.94-686c28.11-8.95,65.53-11.06,88.8,10.51,25,23.2,11.75,59-.17,86.09-16.28,37-29.67,99.78-38.11,138.19-27.69,126.13-40.13,226.34-53.14,354.61Q797.29,907.72,792.86,956.06Z" class="cls-24"></path><path d="M484.14,677.13c-8.61,127.41-17.8,297-14,365.07" class="cls-25"></path><path d="M924.19,658.65s-6.78,87.62,46.75,366.34" class="cls-25"></path><polygon points="958.31 962.87 969.69 1025.11 1069.31 1013.18 1064.08 951.46 958.31 962.87" class="cls-26"></polygon><polygon points="347.86 941.91 467.44 956.1 466.74 1036.48 345.66 1021.34 347.86 941.91" class="cls-26"></polygon><polygon points="505.04 920.73 612.69 930.81 612.69 1038.53 506.86 1031.9 505.04 920.73" class="cls-26"></polygon><polygon points="930.76 912.87 823.11 922.95 823.11 1030.68 928.94 1024.04 930.76 912.87" class="cls-26"></polygon><path d="M645,742.07s82.31,13.27,151.38-.86L792,897.07S766.09,756.7,645,742.07Z" class="cls-27"></path></svg>