<svg xml:space="preserve" style="enable-background:new 0 0 257 253.59;" viewBox="0 0 257 253.59" height="253.59px" width="257px" y="0px" x="0px" xmlns:xlink="http://www.w3.org/1999/xlink" xmlns="http://www.w3.org/2000/svg" id="Layer_1" version="1.1">
<g style="display:none;" id="Layer_2">
	<g style="display:inline;">
		<path d="M138.58,34.061
			c-15.923-5.748-33.558-7.401-51.385-3.936C34.578,40.351,0.212,91.295,10.439,143.912" style="fill:none;stroke:#F59FB3;stroke-width:10;stroke-linecap:round;stroke-linejoin:round;"></path>
		<path d="M183.871,80.998
			c-18.545-32.675-56.474-51.436-95.392-43.872C54.457,43.738,28.67,68.72,19.41,99.782" style="fill:none;stroke:#FFFF75;stroke-width:10;stroke-linecap:round;stroke-linejoin:round;"></path>
		<path d="M162.523,65.591
			c-18.646-17.629-45.229-26.313-72.333-21.044c-35.735,6.945-61.546,36.032-65.964,70.26" style="fill:none;stroke:#AFEB75;stroke-width:10;stroke-linecap:round;stroke-linejoin:round;"></path>
		<path d="M176.344,100.672
			c-12.027-34.47-47.85-55.784-84.741-48.615c-19.632,3.816-35.963,14.998-46.68,30.121" style="fill:none;stroke:#75D5EB;stroke-width:10;stroke-linecap:round;stroke-linejoin:round;"></path>
	</g>
</g>
<g id="Layer_5">
</g>
<g id="Layer_3">
</g>
<g id="Layer_6">
</g>
<g style="opacity:0.63;" id="Layer_4_1_">
	<path d="M206.559,20.118c-30.029-28.15-77.248-26.564-105.459,3.536c-0.438,0.467-0.85,0.951-1.275,1.428
		c-24.84-5.429-51.854,1.983-70.538,21.916C1.064,77.1,2.535,124.321,32.565,152.471c0.391,0.365,0.794,0.704,1.192,1.063
		c-6.078,25.231,1.164,52.891,21.417,71.876c30.029,28.146,77.245,26.562,105.463-3.538c1.604-1.711,3.1-3.485,4.514-5.304
		c21.455,1.328,43.334-6.577,59.205-23.51c26.08-27.822,26.777-70.255,3.029-98.75C234.491,68.466,227.434,39.686,206.559,20.118z" style="fill:#B8D8FC;"></path>
</g>
<path d="M256,169.607H0v35.933c14.8,27.679,44.028,46.519,77.671,46.519c2.763,0,5.492-0.146,8.191-0.393
	c0.538,0.648,1.086,1.29,1.642,1.924h132.447c11.287-12.876,18.873-29.064,21.078-46.921c5.34-2.812,10.352-6.159,14.971-9.963
	V169.607z" style="fill:#D6F0FF;"></path>
<rect height="3" width="256" style="fill:#CCCCDE;" y="168.107" x="1"></rect>
<rect height="3" width="34" style="fill:#FFFFFF;" y="190.507" x="8"></rect>
<rect height="3" width="46" style="fill:#FFFFFF;" y="218.156" x="33.333"></rect>
<g style="opacity:0.61;enable-background:new    ;">
	<rect height="3" width="39.334" style="fill:#FFFFFF;" y="186.736" x="115.333"></rect>
</g>
<rect height="3" width="12.667" style="fill:#FFFFFF;" y="199.305" x="228"></rect>
<g style="opacity:0.48;enable-background:new    ;">
	<rect height="3" width="10" style="fill:#FFFFFF;" y="191.764" x="195.334"></rect>
</g>
<g style="opacity:0.48;enable-background:new    ;">
	<rect height="3" width="15.334" style="fill:#FFFFFF;" y="198.048" x="79.333"></rect>
</g>
<g style="opacity:0.48;enable-background:new    ;">
	<rect height="3" width="5.333" style="fill:#FFFFFF;" y="228.21" x="8.667"></rect>
</g>
<g style="opacity:0.1;enable-background:new    ;">
	<rect height="7.974" width="256" style="fill:#6E6E96;" y="169.607" x="1"></rect>
</g>
<g style="opacity:0.41;enable-background:new    ;">
	<path d="M67,126.59H37c-1.657,0-3-1.343-3-3s1.343-3,3-3h30c1.657,0,3,1.343,3,3S68.657,126.59,67,126.59z" style="fill:#FFFFFF;"></path>
</g>
<g style="opacity:0.55;enable-background:new    ;">
	<path d="M213.044,99.59H187c-1.657,0-3-1.343-3-3s1.343-3,3-3h26.044c1.657,0,3,1.343,3,3
		S214.701,99.59,213.044,99.59z" style="fill:#FFFFFF;"></path>
</g>
<g style="opacity:0.53;enable-background:new    ;">
	<path d="M200.875,49.59H184c-1.657,0-3-1.343-3-3s1.343-3,3-3h16.875c1.657,0,3,1.343,3,3
		S202.532,49.59,200.875,49.59z" style="fill:#FFFFFF;"></path>
</g>
<g>
	<path d="M46.85,71.42l-2.993-0.142c0-5.442-7.432-7.195-7.507-7.212c-0.808-0.184-1.314-0.988-1.13-1.795
		c0.184-0.808,0.99-1.312,1.795-1.13c0.301,0.069,5.677,1.341,8.354,5.261c1.437-2.576,4.012-4.904,8.27-4.904
		c0.829,0,1.5,0.671,1.5,1.5s-0.671,1.5-1.5,1.5C47.58,64.497,46.877,71.137,46.85,71.42z" style="fill:#FFFFFF;"></path>
	<path d="M48.512,72.383h-6.703c-0.829,0-1.5-0.671-1.5-1.5s0.671-1.5,1.5-1.5h6.703
		c0.829,0,1.5,0.671,1.5,1.5S49.341,72.383,48.512,72.383z" style="fill:#FFFFFF;"></path>
</g>
<g>
	<path d="M148.642,148.562l-2.993-0.146c0-5.628-7.673-7.438-7.75-7.455
		c-0.809-0.184-1.314-0.987-1.131-1.795s0.986-1.318,1.795-1.131c0.311,0.07,5.873,1.388,8.602,5.448
		c1.465-2.66,4.107-5.079,8.497-5.079c0.828,0,1.5,0.672,1.5,1.5s-0.672,1.5-1.5,1.5
		C149.44,141.404,148.671,148.271,148.642,148.562z" style="fill:#FFFFFF;"></path>
	<path d="M150.393,149.51h-6.892c-0.828,0-1.5-0.672-1.5-1.5s0.672-1.5,1.5-1.5h6.892
		c0.828,0,1.5,0.672,1.5,1.5S151.221,149.51,150.393,149.51z" style="fill:#FFFFFF;"></path>
</g>
<g id="Layer_9">
</g>
<g>
	<path d="M228,185.963c-2.485,0-4.5-2.015-4.5-4.5c0-51.28-41.72-93-93-93s-93,41.72-93,93
		c0,2.485-2.015,4.5-4.5,4.5s-4.5-2.015-4.5-4.5c0-56.243,45.757-102,102-102s102,45.757,102,102
		C232.5,183.948,230.485,185.963,228,185.963z" style="fill:#F59FB3;"></path>
	<path d="M219,185.963c-2.485,0-4.5-2.015-4.5-4.5c0-46.41-37.757-84.167-84.166-84.167
		c-46.41,0-84.167,37.757-84.167,84.167c0,2.485-2.015,4.5-4.5,4.5s-4.5-2.015-4.5-4.5c0-51.372,41.794-93.167,93.167-93.167
		c51.372,0,93.166,41.795,93.166,93.167C223.5,183.948,221.485,185.963,219,185.963z" style="fill:#FFFF75;"></path>
	<path d="M210.666,185.963c-2.485,0-4.5-2.015-4.5-4.5c0-41.814-34.019-75.833-75.833-75.833
		S54.5,139.648,54.5,181.463c0,2.485-2.015,4.5-4.5,4.5s-4.5-2.015-4.5-4.5c0-46.777,38.056-84.833,84.833-84.833
		c46.777,0,84.833,38.056,84.833,84.833C215.166,183.948,213.151,185.963,210.666,185.963z" style="fill:#AFEB75;"></path>
	<path d="M202.001,185.963c-2.485,0-4.5-2.015-4.5-4.5c0-36.944-30.057-67.001-67.002-67.001
		c-36.944,0-67,30.057-67,67.001c0,2.485-2.015,4.5-4.5,4.5s-4.5-2.015-4.5-4.5c0-41.907,34.093-76.001,76-76.001
		c41.907,0,76.002,34.094,76.002,76.001C206.501,183.948,204.486,185.963,202.001,185.963z" style="fill:#75D5EB;"></path>
</g>
<g>
	<path d="M49.292,244.266c-1.445,0-2.865-0.694-3.734-1.982
		c-11.378-16.861-17.392-36.566-17.392-56.986c0-2.485,2.015-4.5,4.5-4.5s4.5,2.015,4.5,4.5c0,18.619,5.481,36.583,15.852,51.951
		c1.39,2.061,0.847,4.857-1.213,6.248C51.033,244.017,50.158,244.266,49.292,244.266z" style="opacity:0.26;fill:#F59FB3;enable-background:new    ;"></path>
	<path d="M206.688,250.217c-0.978,0-1.962-0.316-2.788-0.97
		c-1.949-1.542-2.28-4.372-0.739-6.321c13.088-16.551,20.005-36.479,20.005-57.629c0-2.485,2.015-4.5,4.5-4.5s4.5,2.015,4.5,4.5
		c0,23.196-7.588,45.055-21.944,63.211C209.333,249.631,208.017,250.217,206.688,250.217z" style="opacity:0.26;fill:#F59FB3;enable-background:new    ;"></path>
	<path d="M63.728,248.323c-1.249,0-2.492-0.517-3.381-1.528
		c-14.948-16.998-23.181-38.839-23.181-61.498c0-2.485,2.015-4.5,4.5-4.5s4.5,2.015,4.5,4.5c0,20.47,7.437,40.2,20.939,55.555
		c1.641,1.866,1.458,4.71-0.408,6.351C65.843,247.954,64.783,248.323,63.728,248.323z" style="opacity:0.26;fill:#FFFF75;enable-background:new    ;"></path>
	<path d="M194.681,250.797c-1.111,0-2.225-0.409-3.096-1.234
		c-1.803-1.71-1.879-4.559-0.169-6.362c14.886-15.697,23.084-36.262,23.084-57.903c0-2.485,2.015-4.5,4.5-4.5s4.5,2.015,4.5,4.5
		c0,23.956-9.075,46.72-25.553,64.097C197.062,250.326,195.873,250.797,194.681,250.797z" style="opacity:0.26;fill:#FFFF75;enable-background:new    ;"></path>
	<path d="M72.205,245.244c-1.187,0-2.372-0.467-3.256-1.394
		C53.828,228.004,45.5,207.209,45.5,185.297c0-2.485,2.015-4.5,4.5-4.5s4.5,2.015,4.5,4.5c0,19.587,7.444,38.176,20.96,52.341
		c1.715,1.798,1.649,4.646-0.149,6.362C74.439,244.831,73.321,245.244,72.205,245.244z" style="opacity:0.26;fill:#AFEB75;enable-background:new    ;"></path>
	<path d="M188.461,245.244c-1.116,0-2.234-0.413-3.105-1.244
		c-1.798-1.716-1.865-4.564-0.149-6.362c13.517-14.166,20.96-32.754,20.96-52.341c0-2.485,2.015-4.5,4.5-4.5s4.5,2.015,4.5,4.5
		c0,21.911-8.327,42.706-23.448,58.554C190.834,244.777,189.648,245.244,188.461,245.244z" style="opacity:0.26;fill:#AFEB75;enable-background:new    ;"></path>
	<path d="M85.401,245.555c-0.989,0-1.985-0.324-2.816-0.992
		c-18.061-14.518-28.418-36.119-28.418-59.266c0-2.485,2.015-4.5,4.5-4.5s4.5,2.015,4.5,4.5c0,20.405,9.133,39.45,25.057,52.25
		c1.937,1.558,2.245,4.39,0.688,6.327C88.022,244.979,86.717,245.555,85.401,245.555z" style="opacity:0.26;fill:#75D5EB;enable-background:new    ;"></path>
	<path d="M174.938,245.552c-1.316,0-2.621-0.574-3.51-1.68
		c-1.558-1.938-1.25-4.77,0.687-6.327c15.922-12.802,25.053-31.846,25.053-52.248c0-2.485,2.015-4.5,4.5-4.5s4.5,2.015,4.5,4.5
		c0,23.143-10.356,44.743-28.412,59.262C176.924,245.227,175.928,245.552,174.938,245.552z" style="opacity:0.26;fill:#75D5EB;enable-background:new    ;"></path>
</g>
<path d="M196,61.295h-22c-1.657,0-3-1.343-3-3s1.343-3,3-3h22c1.657,0,3,1.343,3,3S197.657,61.295,196,61.295
	z" style="fill:#FFFFFF;"></path>
<g style="opacity:0.31;enable-background:new    ;">
	<path d="M208,71.295h-18c-1.657,0-3-1.343-3-3s1.343-3,3-3h18c1.657,0,3,1.343,3,3
		S209.657,71.295,208,71.295z" style="fill:#FFFFFF;"></path>
</g>
<path d="M41,110.295H19c-1.657,0-3-1.343-3-3s1.343-3,3-3h22c1.657,0,3,1.343,3,3S42.657,110.295,41,110.295z" style="fill:#FFFFFF;"></path>
</svg>
